# xmcd
#
# Track frame offsets: 
#        182
#        19517
#        31230
#        44157
#        68880
#        85630
#        95715
#        130055
#        149930
#
# Disc length: 2257 seconds
#
# Revision: 0
# Processed by: cddbd v1.5.2PL0 Copyright (c) Steve Scherf et al.
# Submitted via: ExactAudioCopy v1.0b3
#
DISCID=7e08cf09
DTITLE=Chrisma - Chinese Restaurant
DYEAR=1977
DGENRE=Pop
TTITLE0=Thank You
TTITLE1=Black Silk Stocking
TTITLE2=Lola
TTITLE3=C Rock
TTITLE4=What For
TTITLE5=Wanderlust
TTITLE6=Lycee
TTITLE7=Mandoia
TTITLE8=Thank You
EXTD=
EXTT0=
EXTT1=
EXTT2=
EXTT3=
EXTT4=
EXTT5=
EXTT6=
EXTT7=
EXTT8=
PLAYORDER=
